<svg xmlns="http://www.w3.org/2000/svg" width="1000" height="520" viewBox="0 0 1000 520">
<rect x="0" y="0" width="1000" height="520" fill="white"/>
<text x="500.0" y="32" text-anchor="middle" font-family="Arial" font-size="22" fill="#111827">Policy Entropy</text>
<line x1="70" y1="450" x2="930" y2="450" stroke="#111827" stroke-width="1.5"/>
<line x1="70" y1="70" x2="70" y2="450" stroke="#111827" stroke-width="1.5"/>
<text x="500.0" y="500" text-anchor="middle" font-family="Arial" font-size="14" fill="#374151">PPO update</text>
<text x="18" y="260.0" transform="rotate(-90 18,260.0)" text-anchor="middle" font-family="Arial" font-size="14" fill="#374151">entropy</text>
<text x="62" y="74" text-anchor="end" font-family="Arial" font-size="12" fill="#4b5563">8.205</text>
<text x="62" y="454" text-anchor="end" font-family="Arial" font-size="12" fill="#4b5563">5.000</text>
<polyline fill="none" stroke="#2563eb" stroke-width="2.2" points="70.00,96.21 72.88,107.15 75.75,105.74 78.63,107.99 81.51,115.32 84.38,109.98 87.26,108.23 90.13,119.29 93.01,117.17 95.89,112.35 98.76,116.66 101.64,123.95 104.52,123.06 107.39,126.67 110.27,129.38 113.14,141.53 116.02,136.03 118.90,126.46 121.77,132.26 124.65,141.49 127.53,142.17 130.40,138.78 133.28,156.66 136.15,137.22 139.03,147.56 141.91,142.76 144.78,154.76 147.66,153.78 150.54,148.64 153.41,165.36 156.29,159.12 159.16,159.37 162.04,162.47 164.92,162.16 167.79,171.86 170.67,161.27 173.55,167.61 176.42,169.22 179.30,177.01 182.17,180.13 185.05,169.17 187.93,178.06 190.80,181.68 193.68,187.58 196.56,178.76 199.43,189.43 202.31,188.18 205.18,188.84 208.06,189.84 210.94,192.75 213.81,186.99 216.69,193.19 219.57,194.11 222.44,202.93 225.32,199.01 228.19,193.63 231.07,203.36 233.95,202.16 236.82,208.48 239.70,216.58 242.58,213.26 245.45,216.63 248.33,210.97 251.20,207.41 254.08,203.41 256.96,225.97 259.83,224.10 262.71,211.68 265.59,228.55 268.46,229.74 271.34,232.32 274.21,219.90 277.09,218.37 279.97,227.28 282.84,230.26 285.72,243.56 288.60,226.69 291.47,241.97 294.35,238.49 297.22,242.28 300.10,242.25 302.98,241.17 305.85,240.17 308.73,233.62 311.61,249.62 314.48,256.61 317.36,259.30 320.23,255.51 323.11,259.58 325.99,254.91 328.86,254.04 331.74,257.12 334.62,254.90 337.49,250.59 340.37,249.41 343.24,248.13 346.12,269.54 349.00,254.58 351.87,258.28 354.75,265.16 357.63,251.28 360.50,254.54 363.38,268.09 366.25,266.14 369.13,268.42 372.01,268.08 374.88,273.05 377.76,267.07 380.64,268.89 383.51,270.90 386.39,273.25 389.26,278.59 392.14,269.27 395.02,277.11 397.89,282.49 400.77,277.86 403.65,282.97 406.52,285.34 409.40,302.28 412.27,290.92 415.15,288.34 418.03,281.07 420.90,284.14 423.78,279.29 426.66,292.18 429.53,285.53 432.41,283.57 435.28,292.06 438.16,303.44 441.04,297.21 443.91,293.80 446.79,298.17 449.67,309.53 452.54,305.62 455.42,309.57 458.29,308.76 461.17,305.14 464.05,308.60 466.92,317.40 469.80,308.52 472.68,320.96 475.55,309.92 478.43,315.50 481.30,313.95 484.18,315.50 487.06,331.32 489.93,311.65 492.81,325.21 495.69,312.22 498.56,324.99 501.44,320.28 504.31,308.40 507.19,326.28 510.07,328.55 512.94,325.47 515.82,333.40 518.70,331.03 521.57,335.69 524.45,339.95 527.32,321.70 530.20,338.38 533.08,326.52 535.95,318.59 538.83,330.24 541.71,345.72 544.58,331.85 547.46,339.78 550.33,346.69 553.21,340.90 556.09,347.54 558.96,360.89 561.84,352.38 564.72,346.35 567.59,348.38 570.47,349.10 573.34,348.13 576.22,347.46 579.10,352.79 581.97,359.27 584.85,347.53 587.73,351.99 590.60,348.21 593.48,353.71 596.35,351.37 599.23,348.81 602.11,338.81 604.98,357.18 607.86,357.24 610.74,365.41 613.61,368.85 616.49,369.78 619.36,365.28 622.24,367.99 625.12,352.08 627.99,351.11 630.87,350.81 633.75,361.05 636.62,353.91 639.50,365.79 642.37,370.76 645.25,366.86 648.13,363.22 651.00,368.44 653.88,370.00 656.76,365.63 659.63,369.05 662.51,379.81 665.38,370.75 668.26,354.43 671.14,375.86 674.01,383.02 676.89,361.04 679.77,375.31 682.64,380.21 685.52,378.97 688.39,391.93 691.27,382.55 694.15,384.26 697.02,372.07 699.90,371.20 702.78,375.26 705.65,367.36 708.53,372.20 711.40,370.07 714.28,381.51 717.16,376.55 720.03,374.25 722.91,371.52 725.79,369.04 728.66,383.96 731.54,381.41 734.41,378.01 737.29,379.65 740.17,367.15 743.04,375.05 745.92,367.98 748.80,376.59 751.67,379.53 754.55,378.25 757.42,381.81 760.30,381.25 763.18,383.03 766.05,392.26 768.93,385.24 771.81,385.86 774.68,387.06 777.56,400.39 780.43,396.18 783.31,385.11 786.19,392.98 789.06,391.38 791.94,376.40 794.82,389.46 797.69,378.30 800.57,383.39 803.44,390.46 806.32,388.77 809.20,396.51 812.07,399.32 814.95,388.31 817.83,395.86 820.70,397.36 823.58,400.72 826.45,399.75 829.33,390.93 832.21,403.92 835.08,394.31 837.96,412.43 840.84,389.02 843.71,386.81 846.59,399.32 849.46,405.41 852.34,402.33 855.22,415.09 858.09,408.12 860.97,398.83 863.85,406.01 866.72,406.84 869.60,401.04 872.47,400.26 875.35,400.61 878.23,418.00 881.10,388.29 883.98,407.06 886.86,423.79 889.73,406.11 892.61,405.38 895.48,412.01 898.36,417.23 901.24,418.89 904.11,403.55 906.99,416.57 909.87,410.34 912.74,404.31 915.62,420.03 918.49,415.19 921.37,415.94 924.25,418.68 927.12,410.96 930.00,415.69"/>
<line x1="780" y1="62" x2="810" y2="62" stroke="#2563eb" stroke-width="3"/>
<text x="820" y="66" font-family="Arial" font-size="14" fill="#111827">entropy</text>
</svg>
